<svg aria-hidden="true" style="position:absolute;width:0;height:0;overflow:hidden"
  xmlns="http://www.w3.org/2000/svg">
  <defs>
    <symbol id="icon-antenna" viewBox="0 0 32 32">
      <path fill="#2e2f42" style="fill:var(--color1, #2e2f42)"
        d="m30.773 22.098-8.443-8.505.937-4.615c.242.094.499.144.758.146h.006a2.159 2.159 0 1 0-2.008-1.435l-4.96.605L8.972.161a.534.534 0 0 0-.377-.16.532.532 0 0 0-.373.155L6.709 1.66a.534.534 0 0 0 0 .754l.814.826a14.943 14.943 0 0 0 2.519 17.663.513.513 0 0 0 .146.098c-.034.18-.051.364-.052.547v6.187h-6.4a2.67 2.67 0 0 0-2.667 2.667v1.067c0 .295.239.533.533.533h24.533a.533.533 0 0 0 .533-.533v-1.067a2.67 2.67 0 0 0-2.667-2.667h-6.4v-2.742a15.09 15.09 0 0 0 3.049.32 14.854 14.854 0 0 0 7.04-1.783l.818.823a.534.534 0 0 0 .377.16.532.532 0 0 0 .373-.155l1.513-1.504a.534.534 0 0 0 0-.754zM23.28 6.233a1.067 1.067 0 1 1 .753 1.822h-.003a1.067 1.067 0 0 1-.747-1.823h-.002zm-1.256 3.505-.598 2.946-1.175-1.182 1.774-1.763zm-.605-.902-1.92 1.909-1.485-1.493 3.405-.415zM24.004 28.8a1.6 1.6 0 0 1 1.6 1.6v.533H2.137V30.4a1.6 1.6 0 0 1 1.6-1.6h20.267zm-7.467-2.133v1.067h-5.333v-1.067h5.333zM11.204 25.6v-4.053c0-1.294 1.196-2.347 2.667-2.347s2.667 1.053 2.667 2.347V25.6h-5.333zm6.4-1.696v-2.357c0-1.882-1.675-3.413-3.733-3.413a3.8 3.8 0 0 0-3.281 1.786A13.87 13.87 0 0 1 8.311 4.033l18.602 18.708a13.818 13.818 0 0 1-9.309 1.163zm11.289-.684L7.836 2.039l.755-.752 7.935 7.98c.004 0 .006.007.01.01l13.115 13.191-.757.752z" />
      <path fill="#4d5ae5" style="fill:var(--color2, #4d5ae5)"
        d="M13.876 20.267h-.005a1.6 1.6 0 1 0-.004 3.2h.005a1.6 1.6 0 1 0 .004-3.2zm.373 1.978a.534.534 0 0 1-.752-.756.534.534 0 0 1 .373-.155.534.534 0 0 1 .374.911h.005z" />
    </symbol>
    <symbol id="icon-astronaut" viewBox="0 0 32 32">
      <path fill="#4d5ae5" style="fill:var(--color2, #4d5ae5)"
        d="M31.974 4.524a.534.534 0 0 0-.43-.363l-1.91-.278-.855-1.731c-.179-.365-.777-.365-.956 0l-.855 1.731-1.91.278a.535.535 0 0 0-.296.91l1.383 1.348-.326 1.903c-.034.2.048.402.212.522a.53.53 0 0 0 .562.04l1.709-.899 1.709.899a.536.536 0 0 0 .775-.563l-.326-1.903 1.383-1.348a.536.536 0 0 0 .135-.547zm-2.463 1.327a.534.534 0 0 0-.153.472l.191 1.114-1-.526a.533.533 0 0 0-.498 0l-1.001.526.191-1.114a.534.534 0 0 0-.153-.472l-.81-.789 1.119-.163a.532.532 0 0 0 .402-.292l.5-1.013.5 1.013a.535.535 0 0 0 .402.292l1.119.163-.809.789zM26.134 20.522h-1.067v1.067h1.067v-1.067zM26.134 22.656h-1.067v1.067h1.067v-1.067zM27.2 21.589h-1.067v1.067H27.2v-1.067zM25.067 21.589H24v1.067h1.067v-1.067zM22.4 26.389h-1.067v1.067H22.4v-1.067zM22.4 28.522h-1.067v1.067H22.4v-1.067zM23.467 27.456H22.4v1.067h1.067v-1.067zM21.333 27.456h-1.067v1.067h1.067v-1.067zM16 24.256h-1.067v1.067H16v-1.067zM16 26.389h-1.067v1.067H16v-1.067zM17.067 25.322H16v1.067h1.067v-1.067zM14.933 25.322h-1.067v1.067h1.067v-1.067zM5.867 6.122H4.8v1.067h1.067V6.122zM5.867 8.255H4.8v1.067h1.067V8.255z" />
      <path fill="#4d5ae5" style="fill:var(--color2, #4d5ae5)"
        d="M6.933 7.189H5.866v1.067h1.067V7.189zM4.8 7.189H3.733v1.067H4.8V7.189z" />
      <path fill="#2e2f42" style="fill:var(--color1, #2e2f42)"
        d="M24.715 14.159a1.775 1.775 0 0 0-1.188-.705 1.778 1.778 0 0 0-1.34.352l-1.252.96-1.898 1.417-1.358-.541c2.421-1.086 4.114-3.508 4.114-6.32 0-3.823-3.123-6.933-6.961-6.933s-6.961 3.11-6.961 6.933a6.86 6.86 0 0 0 1.12 3.758l-2.764-.024h-.005c-.009 0-.015.004-.023.005a.515.515 0 0 0-.155.031l-.038.013c-.006.003-.013.003-.019.006l-3.233 1.596-.001.001-1.893.911a.397.397 0 0 0-.063.035 1.779 1.779 0 0 0-.598 2.295c.22.429.595.745 1.056.889a1.776 1.776 0 0 0 1.378-.128l1.388-.738 2.264-1.169 1.357-.008L2.2 22.211l-.002.001-1.339 1.333c-.316.315-.49.732-.49 1.178s.174.863.49 1.179c.325.323.752.485 1.179.485s.854-.162 1.18-.485l1.314-1.309 1.741-1.3.901.897-1.762 1.754-.002.001-1.339 1.333c-.316.315-.49.732-.49 1.178s.174.863.49 1.179c.325.323.753.485 1.18.485s.855-.162 1.18-.485l3.482-3.467.001-.002 1.01-1-.004-.004c.006-.006.015-.009.022-.015l5.166-5.658 3.471.494a.52.52 0 0 0 .262-.033c.018-.006.033-.015.05-.023.019-.01.039-.015.058-.027l3.213-2.133c.012-.008.018-.021.029-.029.013-.01.029-.014.041-.026l1.271-1.191c.662-.62.753-1.635.212-2.362zM2.13 17.77a.714.714 0 0 1-.558.052.717.717 0 0 1-.213-1.26l1.314-.632.449 1.313-.992.527zm3.498-1.828-1.548.8-.439-1.283 2.027-1.001-.04 1.484zm15.099-6.62a5.79 5.79 0 0 1-.599 2.559l-4.181-1.899a1.863 1.863 0 0 0-.788-1.388l1.464-4.86c2.378.756 4.105 2.974 4.105 5.588zm-11.789 0c0-3.235 2.644-5.867 5.894-5.867.253 0 .5.021.745.052l-1.432 4.754c-.019-.001-.037-.006-.057-.006-1.033 0-1.873.837-1.873 1.867s.84 1.867 1.873 1.867c.694 0 1.294-.383 1.618-.945l3.862 1.755a5.894 5.894 0 0 1-4.737 2.39c-3.25 0-5.894-2.632-5.894-5.867zm5.956.8c0 .441-.362.8-.806.8s-.806-.359-.806-.8c0-.441.362-.8.806-.8s.806.359.806.8zM2.465 25.146a.608.608 0 0 1-.854.001.592.592 0 0 1 0-.844l.962-.958.851.848-.959.955zm3.214 3.734a.608.608 0 0 1-.855.001.592.592 0 0 1 0-.844l.963-.959.852.848-.96.955zm3.481-3.469-.002.001-1.765 1.76-.852-.848 1.763-1.755.002-.001c.04-.04.065-.088.09-.135.007-.014.02-.026.026-.04.017-.041.019-.085.026-.129.003-.025.014-.047.014-.073 0-.036-.013-.07-.02-.106-.006-.032-.006-.065-.019-.095a.55.55 0 0 0-.091-.138c-.01-.012-.014-.027-.025-.038h-.001l-.001-.002-1.607-1.6c-.017-.017-.039-.024-.058-.038a.507.507 0 0 0-.087-.058.515.515 0 0 0-.093-.033.507.507 0 0 0-.103-.02.5.5 0 0 0-.095.005.53.53 0 0 0-.104.02.477.477 0 0 0-.094.045c-.02.011-.042.015-.061.029L4.23 23.486l-.901-.897 2.399-2.386 4.361 4.289-.928.919zm6.819-7.017c-.015-.002-.03.004-.045.003a.556.556 0 0 0-.3.075.492.492 0 0 0-.083.061c-.013.011-.028.017-.04.029l-4.698 5.146-4.328-4.257 2.833-2.818a.534.534 0 0 0-.379-.911v-.001l-2.219.013.028-1.607 3.104.027a6.947 6.947 0 0 0 4.981 2.101c.437 0 .864-.045 1.279-.123.04.032.079.065.13.085l2.41.96.152.758.178.885-3.003-.427zm4.041.178-.313-1.558 1.446-1.08.947 1.257-2.08 1.381zm3.754-2.831-.838.785-.931-1.236.831-.637a.735.735 0 0 1 .543-.143.718.718 0 0 1 .48.284.713.713 0 0 1-.085.947z" />
      <path fill="#2e2f42" style="fill:var(--color1, #2e2f42)"
        d="m13.602 18.544-2.143-2.133a.534.534 0 0 0-.753 0l-2.142 2.133a.537.537 0 0 0 0 .756l2.142 2.133a.536.536 0 0 0 .753 0l2.143-2.133a.535.535 0 0 0 0-.756zm-2.519 1.759-1.387-1.381 1.387-1.381 1.387 1.381-1.387 1.381zM17.164 5.071l-.258 1.036c.071.018 1.738.452 1.738 2.149h1.067c0-2.017-1.666-2.965-2.547-3.185zM19.711 9.322h-1.067v1.067h1.067V9.322z" />
    </symbol>
    <symbol id="icon-Client-1" viewBox="0 0 32 32">
      <path
        d="m13.333 12 1.335 1.272-2.478-.001v6.17h6.476v-2.359l1.333 1.27v-6.351h-6.667zm5.275 4.932-3.785-3.606h3.785v3.606zm-1.175 1.606h-4.218v-4.15h.298v3.869h3.92v.281zm-3.377 2.045.157-.323h.129l-.228.428v.249h-.118v-.249l-.228-.428h.13l.157.323zm.58-.323h.028l.256.677h-.123l-.055-.159h-.262l-.055.159h-.122l.255-.677h.078zm-.124.426h.198l-.099-.287-.099.287zm.818-.112a.867.867 0 0 0-.063.05c-.02.018-.036.038-.047.059s-.017.045-.017.073c0 .037.009.07.027.099s.043.051.076.068.072.025.117.025a.305.305 0 0 0 .105-.018.258.258 0 0 0 .069-.038l.039.046h.13l-.099-.117a.277.277 0 0 0 .049-.112.473.473 0 0 0 .01-.093h-.097a.286.286 0 0 1-.029.126l-.134-.158.047-.034c.018-.013.034-.027.047-.041s.024-.031.032-.048a.141.141 0 0 0 .012-.059.144.144 0 0 0-.078-.128.178.178 0 0 0-.089-.021c-.036 0-.067.007-.093.021s-.047.033-.062.059-.022.056-.022.091c0 .023.005.045.014.067a.32.32 0 0 0 .055.086zm.056.068.151.177a.179.179 0 0 1-.109.038c-.024 0-.044-.005-.061-.014s-.029-.022-.038-.039a.12.12 0 0 1-.013-.054c0-.008.001-.017.004-.027s.008-.021.015-.034a.186.186 0 0 1 .037-.039l.014-.01zm.026-.124-.008-.01c-.012-.016-.022-.031-.029-.046s-.011-.029-.011-.043c0-.015.003-.028.008-.04s.014-.022.025-.029a.072.072 0 0 1 .04-.011c.023 0 .04.007.053.02s.019.029.019.045c0 .019-.004.035-.013.047s-.022.025-.042.038l-.042.028zm1.185.199c-.004.044-.016.084-.037.119s-.051.062-.089.081-.084.03-.139.03c-.042 0-.08-.007-.113-.022a.258.258 0 0 1-.141-.165.417.417 0 0 1-.019-.132v-.056c0-.049.006-.093.019-.132s.032-.073.056-.101c.024-.028.053-.05.087-.065s.072-.022.115-.022c.054 0 .099.01.137.03s.066.047.087.082a.278.278 0 0 1 .038.12h-.116c-.003-.029-.01-.054-.02-.075s-.025-.037-.046-.047a.165.165 0 0 0-.079-.017c-.027 0-.05.005-.07.015s-.036.024-.05.044c-.013.019-.023.043-.03.071s-.01.06-.01.096v.057c0 .034.003.065.009.093s.015.051.028.071c.013.02.029.035.048.046s.043.016.07.016c.033 0 .06-.005.08-.016s.036-.026.047-.046a.195.195 0 0 0 .021-.075h.116zm.646-.1v-.037c0-.051-.007-.097-.02-.137s-.032-.075-.057-.104c-.025-.029-.054-.051-.089-.066a.287.287 0 0 0-.228 0 .25.25 0 0 0-.089.066c-.025.029-.044.063-.058.104s-.02.086-.02.137v.037c0 .051.007.097.02.138s.034.075.059.104.055.05.089.066c.034.015.072.022.114.022s.08-.007.114-.022.064-.037.088-.066.044-.063.057-.104.02-.087.02-.138zm-.117-.038v.038c0 .038-.004.071-.011.1s-.018.054-.032.074a.137.137 0 0 1-.12.06.14.14 0 0 1-.121-.06c-.014-.02-.025-.045-.033-.074s-.011-.063-.011-.1v-.038c0-.038.004-.071.011-.1s.018-.053.032-.073c.014-.02.031-.035.052-.045s.043-.015.069-.015.049.005.069.015c.02.01.038.025.052.045s.025.044.032.073a.425.425 0 0 1 .011.1z" />
    </symbol>
    <symbol id="icon-Client-2" viewBox="0 0 32 32">
      <path
        d="M15.641 11.797c.044 0 .091.004.138.008l.014.001c.227.016.453.05.675.102v-.545a4.086 4.086 0 0 0-.696-.111 6.004 6.004 0 0 0-.281-.014h-.081a5.676 5.676 0 0 0-1.397.18c-.52.13-1.019.333-1.483.603v5.409a6.185 6.185 0 0 1 2.599-.733h.016a6.68 6.68 0 0 1 .203-.006v-.554a6.526 6.526 0 0 0-1.542.205 7.225 7.225 0 0 0-.536.159l-.193.065v-4.217l.082-.04a5.384 5.384 0 0 1 2.003-.511h.017c.077-.004.154-.006.229-.006h.087l.12.004h.026zm.96.558c.121.009.246.014.373.014a6.013 6.013 0 0 0 1.469-.188 6.078 6.078 0 0 0 1.413-.551v5.313c-.464.27-.963.473-1.483.603a5.73 5.73 0 0 1-1.397.18 4.257 4.257 0 0 1-1.06-.125v-5.347a4.761 4.761 0 0 0 .686.103zm2.703.041-.193.065a6.55 6.55 0 0 1-2.137.365c-.126 0-.241-.003-.353-.011l-.154-.01v4.338l.132.012c.122.011.249.016.376.016a5.161 5.161 0 0 0 1.261-.163 5.31 5.31 0 0 0 .985-.354l.082-.04v-4.219zM12.902 19.279a.283.283 0 0 0-.214-.086.31.31 0 0 0-.22.086.308.308 0 0 0-.084.217v.723a.3.3 0 0 0 .1.245.253.253 0 0 0 .099.051c.035.01.071.015.108.015a.292.292 0 0 0 .213-.092.303.303 0 0 0 .086-.212v-.081h-.189v.064a.154.154 0 0 1-.011.064.122.122 0 0 1-.027.041.134.134 0 0 1-.08.028c-.017.002-.034-.001-.05-.007s-.029-.018-.039-.031a.166.166 0 0 1-.025-.097v-.674a.239.239 0 0 1 .023-.108c.01-.015.024-.027.04-.035s.035-.011.052-.008a.1.1 0 0 1 .084.041.154.154 0 0 1 .031.097v.062h.187v-.074a.36.36 0 0 0-.023-.126.3.3 0 0 0-.063-.102zM14.025 19.27a.332.332 0 0 0-.428 0 .304.304 0 0 0-.1.241v.693a.289.289 0 0 0 .1.239c.029.027.063.048.1.061a.336.336 0 0 0 .226 0 .297.297 0 0 0 .2-.3v-.693a.313.313 0 0 0-.098-.241zm-.089.935a.124.124 0 0 1-.037.1c-.025.021-.056.032-.089.032s-.064-.011-.089-.032a.124.124 0 0 1-.037-.1v-.693a.124.124 0 0 1 .037-.1c.025-.021.056-.032.089-.032s.064.011.089.032a.124.124 0 0 1 .037.1v.693zM15.499 20.514v-1.312h-.182l-.239.695h-.003l-.24-.695h-.18v1.312h.187v-.798h.003l.184.564h.094l.185-.564h.003v.798h.187zM16.563 19.294a.267.267 0 0 0-.106-.072.42.42 0 0 0-.136-.02h-.279v1.312h.187v-.512h.096a.344.344 0 0 0 .169-.036.275.275 0 0 0 .103-.1.316.316 0 0 0 .043-.114.925.925 0 0 0 .01-.149.733.733 0 0 0-.018-.187.277.277 0 0 0-.069-.121zm-.096.4a.175.175 0 0 1-.017.068.112.112 0 0 1-.048.046.191.191 0 0 1-.088.016h-.085v-.446h.096a.185.185 0 0 1 .084.016.108.108 0 0 1 .044.048c.01.023.016.048.016.073v.087c0 .03.002.062 0 .09h-.002zM17.449 19.202h-.153l-.289 1.312h.187l.055-.282h.255l.055.282h.187l-.296-1.312zm-.172.852.092-.476h.003l.092.476h-.187zM18.657 19.992h-.003l-.282-.79h-.18v1.312h.187v-.789h.004l.286.789h.176v-1.312h-.187v.79zM19.8 19.202l-.15.522h-.004l-.15-.522h-.198l.257.758v.555h.187v-.555l.257-.758h-.198zM12.381 20.885h.09v.253h.061v-.253h.09v-.052h-.241v.052zM13.138 20.833l-.118.305h.065l.025-.069h.121l.026.069h.066l-.121-.305h-.065zm-.009.184.041-.113.041.113h-.083zM13.887 21.025h.07v.039a.12.12 0 0 1-.072.026c-.012.001-.025-.002-.036-.007s-.021-.013-.029-.022a.13.13 0 0 1-.023-.079c0-.068.029-.102.088-.102a.065.065 0 0 1 .069.048l.06-.012c-.013-.06-.056-.09-.129-.09a.153.153 0 0 0-.106.039c-.015.015-.027.034-.035.054s-.011.042-.009.063a.163.163 0 0 0 .039.114.15.15 0 0 0 .116.045.185.185 0 0 0 .129-.048v-.12h-.132v.051zM14.652 20.833h-.062v.305h.213v-.052h-.152v-.253zM15.299 20.833h-.062v.305h.062v-.305zM15.931 21.036l-.125-.203h-.06v.305h.057v-.199l.122.199h.061v-.305h-.056v.203zM16.502 21.003h.152v-.052h-.152v-.067h.163v-.052h-.225v.305h.231v-.052h-.17v-.082zM17.888 20.953h-.12v-.12h-.061v.305h.061v-.133h.12v.133h.061v-.305h-.061v.12zM18.463 21.003h.152v-.052h-.152v-.067h.164v-.052h-.225v.305h.231v-.052h-.17v-.082zM19.242 21.003c.053-.008.08-.036.08-.085.002-.013 0-.026-.006-.038s-.014-.022-.024-.03a.172.172 0 0 0-.089-.018h-.129v.305h.061v-.127h.012a.083.083 0 0 1 .038.007.077.077 0 0 1 .022.022l.066.097h.073l-.037-.06a.213.213 0 0 0-.067-.073zm-.061-.042h-.045v-.077h.048a.162.162 0 0 1 .062.007c.004.004.008.009.01.014s.003.011.003.017c0 .006-.002.012-.005.017s-.007.01-.012.013a.162.162 0 0 1-.062.007zM19.83 21.003h.152v-.052h-.152v-.067h.164v-.052h-.226v.305h.231v-.052h-.17v-.082z" />
    </symbol>
    <symbol id="icon-Client-3" viewBox="0 0 32 32">
      <path
        d="m13.107 20.043.009.002a.018.018 0 0 1 .007.005l.042.04a.345.345 0 0 1-.118.075.474.474 0 0 1-.168.027.467.467 0 0 1-.158-.025.318.318 0 0 1-.196-.181.38.38 0 0 1 .002-.282c.018-.041.046-.078.082-.11s.079-.055.126-.071a.494.494 0 0 1 .162-.025.401.401 0 0 1 .264.086l-.035.042c-.002.003-.005.006-.009.008s-.009.004-.014.003a.027.027 0 0 1-.015-.005l-.019-.011-.026-.014a.365.365 0 0 0-.083-.025.354.354 0 0 0-.18.014.242.242 0 0 0-.15.137.285.285 0 0 0-.022.111.278.278 0 0 0 .022.113c.013.031.033.06.058.084.024.023.054.041.087.052a.35.35 0 0 0 .172.014.262.262 0 0 0 .139-.058.032.032 0 0 1 .02-.007zM14.321 19.844a.34.34 0 0 1-.028.14c-.017.041-.044.078-.079.108s-.077.055-.124.071a.515.515 0 0 1-.32 0c-.047-.016-.089-.041-.124-.071s-.062-.069-.08-.11a.358.358 0 0 1 0-.28.327.327 0 0 1 .204-.179.515.515 0 0 1 .32 0c.047.016.089.041.124.071s.062.068.079.108a.345.345 0 0 1 .028.141zm-.11 0a.288.288 0 0 0-.02-.112.234.234 0 0 0-.145-.137.368.368 0 0 0-.232 0 .257.257 0 0 0-.089.053.224.224 0 0 0-.057.084.323.323 0 0 0 0 .225c.012.031.031.06.057.084a.257.257 0 0 0 .089.053.383.383 0 0 0 .232 0 .234.234 0 0 0 .145-.137.288.288 0 0 0 .02-.112zM15.15 19.962l.011.025a.592.592 0 0 1 .026-.05l.269-.417c.005-.007.01-.012.015-.013a.055.055 0 0 1 .022-.002h.079v.679h-.094v-.543l-.27.423c-.003.006-.009.012-.016.015s-.015.006-.023.006h-.015c-.008 0-.016-.002-.023-.006s-.012-.009-.016-.016l-.278-.426v.545h-.091v-.677h.079c.007 0 .015 0 .022.002s.012.007.015.013l.274.418.014.024zM16.161 19.928v.254h-.105v-.678h.235a.484.484 0 0 1 .131.015.271.271 0 0 1 .093.042.187.187 0 0 1 .053.066.219.219 0 0 1-.001.174.194.194 0 0 1-.057.068.277.277 0 0 1-.093.045.491.491 0 0 1-.127.016l-.127-.002zm0-.073h.127a.31.31 0 0 0 .081-.01.171.171 0 0 0 .059-.029.128.128 0 0 0 .049-.102c.001-.019-.002-.038-.011-.055s-.021-.033-.037-.046a.223.223 0 0 0-.141-.036h-.127v.279zM17.574 20.183h-.083c-.008 0-.017-.002-.023-.006s-.011-.01-.014-.016l-.072-.164h-.359l-.074.164c-.003.006-.007.011-.013.015s-.015.007-.024.007h-.083l.315-.679h.109l.32.679zm-.52-.252h.297l-.125-.276a.493.493 0 0 1-.024-.064l-.012.035a.285.285 0 0 1-.012.029l-.124.276zM18.028 19.507a.048.048 0 0 1 .016.012l.46.512v-.527h.094v.679h-.053c-.007 0-.015-.001-.022-.004s-.012-.008-.017-.013l-.46-.511v.528h-.094v-.679h.056c.006 0 .013.001.019.003zM19.373 19.913v.27h-.105v-.27l-.291-.409h.094c.008 0 .016.002.023.006s.01.01.014.015l.182.264a.666.666 0 0 1 .032.06l.014-.029a.192.192 0 0 1 .018-.031l.179-.265c.004-.005.008-.01.014-.014s.014-.007.023-.007h.095l-.291.411zM15.098 18.365l.139.013c.709-.271 1.31-.715 1.725-1.276s.629-1.214.613-1.878l-.782-.668c.159.707.085 1.438-.215 2.11s-.812 1.261-1.48 1.699z" />
      <path fill="#8e8f99" style="fill:var(--color3, #8e8f99)"
        d="m14.819 18.334.021.004c.714-.436 1.259-1.046 1.563-1.75s.355-1.469.144-2.198l-1.114-.951c.45.782.632 1.657.523 2.524s-.504 1.689-1.138 2.372zM18.595 16.008c-.189.729-.649 1.387-1.31 1.876a4.255 4.255 0 0 1-.623.382c.539-.135 1.034-.374 1.447-.699s.734-.726.937-1.173l-.452-.385z" />
      <path fill="#8e8f99" style="fill:var(--color3, #8e8f99)"
        d="m18.418 15.901-.643-.549c-.012.626-.221 1.239-.604 1.773s-.926.971-1.574 1.265h.003c.144 0 .288-.007.432-.022.605-.211 1.14-.547 1.556-.977s.701-.942.83-1.49zM14.912 13.037l-.767-.656c-.686.226-1.276.624-1.692 1.142s-.641 1.131-.643 1.759c.003.694.276 1.368.777 1.914s1.201.934 1.989 1.103c.704-.732 1.115-1.637 1.176-2.584s-.234-1.884-.84-2.677zM20.19 15.8c-.003-.823-.387-1.613-1.068-2.195s-1.605-.91-2.569-.913c-.445 0-.887.07-1.302.207l4.697 4.013c.161-.355.243-.732.243-1.112z" />
    </symbol>
    <symbol id="icon-Client-4" viewBox="0 0 32 32">
      <path
        d="M10.682 14.765h-.001c-.454 0-.823.332-.823.742v.001c0 .41.368.742.823.742h.001c.454 0 .823-.332.823-.742v-.001c0-.41-.368-.742-.823-.742zM16.755 14.528c-.001-.569-.253-1.114-.699-1.517s-1.051-.629-1.682-.63c-.631.001-1.236.228-1.683.63s-.698.948-.699 1.517v3.138s4.763-.478 4.763-3.137zM8.19 18.696c.001.396.176.775.487 1.055s.731.438 1.17.439c.439-.001.86-.159 1.17-.439s.485-.659.487-1.055v-2.183s-3.314.333-3.314 2.183zm1.657.391c-.086 0-.17-.023-.241-.066s-.127-.104-.16-.176a.36.36 0 0 1 .094-.426c.061-.055.138-.092.222-.107s.171-.007.251.022c.079.03.147.08.195.144a.361.361 0 0 1-.054.494.446.446 0 0 1-.307.115v-.001zM12.878 18.384v.813h-.167v-.813h.167zm.324.347v.131h-.369v-.131h.369zm.039-.347v.131h-.408v-.131h.408zm.764.387v.038c0 .062-.008.117-.025.166s-.04.091-.071.126a.318.318 0 0 1-.249.106c-.051 0-.098-.009-.14-.027s-.079-.044-.109-.079c-.031-.035-.055-.076-.072-.126s-.025-.105-.025-.166v-.038c0-.062.008-.118.025-.166s.04-.091.071-.126c.031-.035.067-.061.109-.079s.089-.027.14-.027c.051 0 .098.009.14.027s.079.045.109.079c.031.035.055.076.071.126s.026.104.026.166zm-.169.039v-.04c0-.043-.004-.081-.012-.114s-.019-.06-.035-.083c-.015-.022-.034-.039-.056-.05s-.047-.017-.075-.017-.053.006-.075.017c-.022.011-.04.028-.055.05s-.026.05-.034.083-.012.071-.012.114v.04c0 .043.004.081.012.114s.019.06.035.083c.015.022.034.039.056.051s.047.017.075.017c.028 0 .053-.006.075-.017s.04-.028.055-.051c.015-.023.026-.05.034-.083s.012-.071.012-.114zm.713.174c0-.015-.002-.028-.007-.039s-.012-.023-.023-.032c-.012-.01-.028-.02-.049-.03s-.048-.02-.081-.03c-.037-.012-.072-.025-.105-.04s-.062-.032-.087-.052a.195.195 0 0 1-.08-.162c0-.034.007-.065.022-.092s.036-.052.063-.071c.027-.02.058-.036.095-.046s.077-.016.121-.016c.06 0 .112.011.157.032s.079.051.104.089a.23.23 0 0 1 .037.129h-.166c0-.024-.005-.045-.015-.063s-.025-.033-.045-.043a.167.167 0 0 0-.075-.016c-.029 0-.053.004-.073.013s-.034.02-.044.035a.085.085 0 0 0-.014.049c0 .014.003.026.01.037s.018.022.031.031.031.019.051.027c.02.009.043.017.07.025.044.013.083.028.117.045s.062.036.085.056.04.044.051.071a.213.213 0 0 1 .017.09.195.195 0 0 1-.081.166c-.026.019-.057.034-.093.044a.45.45 0 0 1-.347-.05c-.032-.022-.057-.049-.076-.083s-.028-.073-.028-.119h.168c0 .025.004.047.012.064s.019.032.033.042c.014.011.032.019.051.023s.042.007.066.007c.029 0 .053-.004.071-.012s.033-.02.042-.034a.093.093 0 0 0 .014-.049zm.644-.6v.813h-.167v-.813h.167zm.25 0v.131h-.663v-.131h.663zm.641.682v.131h-.432v-.131h.432zm-.378-.682v.813h-.167v-.813h.167zm.321.331v.127h-.376v-.127h.376zm.056-.331v.131h-.432v-.131h.432zm.098 0h.303c.062 0 .116.009.16.028s.08.046.104.083.036.081.036.134c0 .044-.007.081-.022.112s-.035.057-.062.078a.316.316 0 0 1-.093.049l-.053.028h-.263l-.001-.131h.196c.029 0 .054-.005.073-.016s.034-.025.044-.044a.136.136 0 0 0 .015-.065c0-.026-.005-.049-.015-.068s-.024-.034-.044-.044a.162.162 0 0 0-.074-.015h-.136v.681h-.167v-.813zm.455.812-.185-.362.177-.001.188.355v.008h-.179zm.879-.289h-.207v-.131h.207c.032 0 .058-.005.078-.016s.035-.026.044-.045.014-.04.014-.064-.005-.047-.014-.068-.024-.038-.044-.05a.14.14 0 0 0-.078-.019h-.149v.681h-.167v-.813h.316c.064 0 .118.012.163.035s.081.054.105.094.036.086.036.138c0 .052-.012.098-.036.136s-.059.068-.105.089a.386.386 0 0 1-.163.031zm.965.159v.131h-.432v-.131h.432zm-.378-.682v.813h-.167v-.813h.167zm.322.331v.127h-.376v-.127h.376zm.055-.331v.131h-.432v-.131h.432zm.473 0v.813h-.167v-.813h.167zm.25 0v.131h-.663v-.131h.663zm.641.682v.131h-.432v-.131h.432zm-.378-.682v.813h-.167v-.813h.167zm.321.331v.127h-.376v-.127h.376zm.056-.331v.131h-.432v-.131h.432zm.098 0h.303c.062 0 .115.009.16.028s.08.046.104.083.036.081.036.134c0 .044-.007.081-.022.112s-.035.057-.062.078a.329.329 0 0 1-.093.049l-.053.028h-.263l-.001-.131h.196c.029 0 .054-.005.073-.016s.034-.025.044-.044a.159.159 0 0 0 .001-.133.094.094 0 0 0-.044-.044.162.162 0 0 0-.074-.015h-.136v.681h-.167v-.813zm.455.812-.185-.362.177-.001.187.355v.008h-.179zm.7-.212c0-.015-.002-.028-.007-.039s-.012-.023-.023-.032c-.011-.01-.028-.02-.049-.03s-.048-.02-.081-.03c-.037-.012-.072-.025-.105-.04s-.062-.032-.087-.052a.195.195 0 0 1-.08-.162c0-.034.007-.065.022-.092s.036-.052.062-.071c.027-.02.058-.036.095-.046s.077-.016.121-.016c.06 0 .112.011.157.032s.079.051.104.089a.23.23 0 0 1 .037.129h-.166c0-.024-.005-.045-.015-.063s-.025-.033-.045-.043a.167.167 0 0 0-.075-.016c-.029 0-.053.004-.073.013s-.034.02-.043.035a.085.085 0 0 0-.014.049c0 .014.003.026.01.037s.017.022.031.031c.014.01.031.019.051.027s.043.017.07.025c.044.013.083.028.117.045s.062.036.085.056.04.044.051.071a.23.23 0 0 1 .017.09.195.195 0 0 1-.081.166c-.026.019-.057.034-.093.044a.45.45 0 0 1-.346-.05c-.032-.022-.057-.049-.076-.083s-.028-.073-.028-.119h.168c0 .025.004.047.012.064s.019.032.033.042c.014.011.032.019.051.023s.042.007.066.007c.029 0 .053-.004.071-.012s.033-.02.042-.034a.093.093 0 0 0 .014-.049z" />
    </symbol>
    <symbol id="icon-Client-5" viewBox="0 0 32 32">
      <path
        d="M11.198 19.119a.262.262 0 0 1 .07.184c.002.044-.006.087-.025.128s-.048.076-.084.105a.508.508 0 0 1-.317.085h-.557v-1.168h.546a.502.502 0 0 1 .302.078c.035.027.063.06.082.098s.027.079.024.12a.256.256 0 0 1-.063.179.3.3 0 0 1-.166.091.324.324 0 0 1 .188.1zm-.653-.177h.233a.231.231 0 0 0 .148-.039c.018-.014.031-.032.04-.052s.012-.041.01-.062a.133.133 0 0 0-.049-.114.246.246 0 0 0-.153-.039h-.229v.306zm.404.448c.019-.015.033-.033.043-.054s.014-.043.012-.065c.001-.023-.003-.045-.013-.066s-.025-.039-.044-.054a.265.265 0 0 0-.158-.042h-.245v.321h.248a.261.261 0 0 0 .157-.041zM12.314 19.621l-.304-.456h-.114v.456h-.261v-1.168h.494a.525.525 0 0 1 .344.099.345.345 0 0 1 .037.484.414.414 0 0 1-.236.119l.323.467h-.284zm-.418-.616h.214c.148 0 .222-.059.222-.177a.159.159 0 0 0-.055-.131.248.248 0 0 0-.168-.047h-.216l.003.355zM13.741 19.386h-.52l-.092.235h-.274l.478-1.155h.296l.476 1.155h-.274l-.09-.235zm-.069-.177-.19-.493-.19.493h.38zM15.528 19.621h-.259l-.581-.794v.794h-.259v-1.168h.259l.581.799v-.799h.259v1.168zM17.008 19.341a.537.537 0 0 1-.235.206.839.839 0 0 1-.364.074h-.461v-1.168h.461a.852.852 0 0 1 .364.072.532.532 0 0 1 .235.204.628.628 0 0 1 0 .612zm-.297-.028c.074-.078.115-.177.115-.279s-.041-.201-.115-.279a.482.482 0 0 0-.325-.099h-.18v.756h.18a.486.486 0 0 0 .325-.099zM13.904 11.956s3.346 1.137 3.275 2.783v2.784s-3.344-1.138-3.274-2.784l-.001-2.783zM20.16 16.87a4.899 4.899 0 0 1 2.126-.705v-.871c-.879.305-1.625.858-2.126 1.577z" />
      <path fill="#8e8f99" style="fill:var(--color3, #8e8f99)"
        d="M19.78 17.133c.517-.938 1.414-1.661 2.506-2.022V12.6s-4.765 1.62-4.665 3.964v3.963s.212-.072.546-.208c0-.127 0-.255.015-.383.099-1.088.673-2.096 1.597-2.803z" />
      <path fill="#8e8f99" style="fill:var(--color3, #8e8f99)"
        d="M19.327 18.605a3.7 3.7 0 0 1 .167-.811 3.639 3.639 0 0 0-1.01 2.394c.271-.117.586-.263.917-.435a3.664 3.664 0 0 1-.074-1.148zM19.516 18.619a3.52 3.52 0 0 0 .059 1.039c1.302-.701 2.765-1.785 2.708-3.095v-.114c-.93.094-1.8.46-2.477 1.042a3.596 3.596 0 0 0-.29 1.128z" />
    </symbol>
    <symbol id="icon-Client-6" viewBox="0 0 32 32">
      <path
        d="M16.291 15.894a.559.559 0 0 1-.115-.379v-.55c0-.169.038-.297.115-.384s.208-.131.394-.131c.175 0 .299.037.373.112.08.095.119.212.11.329v.129h-.313v-.131a.683.683 0 0 0-.009-.128.123.123 0 0 0-.045-.076.185.185 0 0 0-.113-.03.189.189 0 0 0-.119.031.145.145 0 0 0-.052.084.62.62 0 0 0-.012.136v.668a.341.341 0 0 0 .04.187c.016.02.037.036.063.045s.053.014.081.011c.04.003.08-.008.111-.03a.133.133 0 0 0 .047-.081.749.749 0 0 0 .01-.134v-.135h.313v.124a.504.504 0 0 1-.108.346c-.072.082-.195.123-.375.123s-.316-.044-.394-.134zM17.596 15.9c-.079-.086-.119-.21-.119-.376v-.579c0-.163.04-.287.119-.371s.211-.126.397-.125c.184 0 .316.042.395.125s.119.208.119.371v.579c0 .163-.04.289-.121.375s-.211.129-.394.129c-.182 0-.317-.044-.397-.129zm.542-.139a.332.332 0 0 0 .038-.171v-.708a.311.311 0 0 0-.037-.168c-.016-.02-.038-.036-.064-.046s-.055-.013-.083-.01c-.028-.003-.057 0-.083.01s-.048.026-.064.046a.31.31 0 0 0-.038.168v.712a.311.311 0 0 0 .038.171c.018.018.041.033.066.042s.053.015.081.015c.028 0 .055-.005.081-.015s.048-.024.066-.042v-.003zM18.883 14.466h.337l.254 1.068.259-1.068h.328l.033 1.541h-.243l-.026-1.071-.25 1.071h-.194l-.259-1.075-.024 1.075h-.245l.03-1.541zM20.473 14.466h.525c.302 0 .454.146.454.438 0 .279-.159.419-.478.419h-.179v.685h-.324l.002-1.541zm.449.658a.252.252 0 0 0 .178-.048.25.25 0 0 0 .047-.174.474.474 0 0 0-.015-.14c-.005-.015-.013-.03-.024-.042s-.025-.023-.041-.031a.339.339 0 0 0-.145-.025h-.126v.46h.126zM21.92 14.466h.348l.357 1.541h-.302l-.071-.355h-.311l-.073.355h-.307l.357-1.541zm.297 1.007-.121-.647-.121.647h.242zM22.914 14.466h.227l.434.879v-.879h.269v1.541h-.216l-.437-.918v.918h-.278l.001-1.541zM24.475 15.419l-.361-.951h.304l.22.611.207-.611h.298l-.357.951v.588h-.311v-.588zM16.792 16.681v.081h-.265v.626h-.111v-.626h-.266v-.081h.641zM17.621 17.387h-.086a.042.042 0 0 1-.038-.023l-.076-.168h-.367l-.077.168a.039.039 0 0 1-.012.019.04.04 0 0 1-.024.007h-.086l.324-.707h.113l.328.704zm-.537-.262h.306l-.13-.288a.412.412 0 0 1-.024-.067l-.012.038-.012.03-.128.287zM18.18 17.318a.434.434 0 0 0 .203-.038v-.159h-.13l-.009-.001-.008-.004-.005-.006a.019.019 0 0 1-.002-.007v-.054h.252v.271a.5.5 0 0 1-.218.073.747.747 0 0 1-.095.004.525.525 0 0 1-.163-.026c-.049-.017-.093-.042-.13-.074a.324.324 0 0 1-.114-.259.324.324 0 0 1 .113-.26.377.377 0 0 1 .13-.073.536.536 0 0 1 .174-.026.506.506 0 0 1 .232.052.32.32 0 0 1 .056.037l-.031.044c-.002.004-.006.007-.011.01s-.01.004-.015.004a.036.036 0 0 1-.02-.006c-.01-.004-.02-.01-.032-.017-.014-.007-.028-.014-.043-.019a.377.377 0 0 0-.142-.022.376.376 0 0 0-.125.02.266.266 0 0 0-.095.056.238.238 0 0 0-.06.088.331.331 0 0 0 0 .236.244.244 0 0 0 .065.089.291.291 0 0 0 .095.056.368.368 0 0 0 .128.014zM19.214 17.307h.354v.081h-.462v-.707h.111l-.003.626zM19.937 17.387h-.111v-.707h.111v.707zM20.349 16.684a.07.07 0 0 1 .017.013l.474.533v-.552h.097v.71h-.056c-.008.001-.017-.001-.024-.004s-.013-.008-.018-.013l-.473-.532v.55h-.093v-.707h.058c.006 0 .013.001.018.003zM21.753 16.681v.078h-.393v.233h.318v.075h-.318v.241h.393v.078h-.507v-.705h.507zM10.132 12.316l4.924 1.206v4.228l-4.924-1.206v-4.228zm-.315-.36v4.794l5.555 1.361v-4.793l-5.555-1.362z" />
      <path fill="#8e8f99" style="fill:var(--color3, #8e8f99)"
        d="m12.794 20.337-5.556-1.363V14.18l5.556 1.362v4.794z" />
      <path fill="#8e8f99" style="fill:var(--color3, #8e8f99)"
        d="m9.909 12.262 4.86 1.191-2.067 1.784-4.861-1.192 2.067-1.783zm-.092-.306-2.578 2.225 5.556 1.362 2.578-2.225-5.555-1.362zM13.107 20.067l2.265-1.955-2.265-.556v2.511z" />
    </symbol>
    <symbol id="icon-clock" viewBox="0 0 32 32">
      <path fill="#2e2f42" style="fill:var(--color1, #2e2f42)"
        d="M31.297 15.301C31.295 6.849 24.442-.002 15.989 0S.686 6.855.688 15.308a15.304 15.304 0 0 0 10.649 14.576.662.662 0 0 0 .529-.065.637.637 0 0 0 .283-.356l3.865-12.25a1.912 1.912 0 1 0-.84-3.635l-5.106-5.107a.637.637 0 0 0-.902.902l5.103 5.109a1.876 1.876 0 0 0 .536 2.309l-3.683 11.673C3.844 25.783.118 17.71 2.799 10.432S13.553-.572 20.831 2.109c7.278 2.681 11.004 10.754 8.323 18.032a14.042 14.042 0 0 1-7.462 7.973l-.398-1.874a.637.637 0 0 0-1.049-.344l-3.837 3.426a.637.637 0 0 0 .231 1.084l4.899 1.564a.638.638 0 0 0 .819-.74l-.391-1.839a15.255 15.255 0 0 0 9.329-14.089zm-15.305-.637a.638.638 0 1 1 0 1.277.638.638 0 0 1 0-1.277zm2.101 14.864 2.184-1.948.603 2.84-2.787-.892z" />
      <path fill="#4d5ae5" style="fill:var(--color2, #4d5ae5)"
        d="M15.354 3.185V4.46a.638.638 0 1 0 1.276 0V3.185a.638.638 0 0 0-1.276 0zM3.876 14.664a.638.638 0 0 0 0 1.276h1.275a.638.638 0 1 0 0-1.276H3.876zM28.108 15.939a.638.638 0 1 0 0-1.276h-1.275a.638.638 0 0 0 0 1.276h1.275z" />
    </symbol>
    <symbol id="icon-diagram" viewBox="0 0 32 32">
      <path fill="#4d5ae5" style="fill:var(--color2, #4d5ae5)"
        d="M14.926 14.965h1.066v4.798h-1.066v-4.797zM19.19 17.097h1.066v2.665H19.19v-2.665zM10.661 18.696h1.066v1.066h-1.066v-1.066zM7.463 18.163h1.066v1.599H7.463v-1.599z" />
      <path fill="#2e2f42" style="fill:var(--color1, #2e2f42)"
        d="M1.599 28.291h25.587a1.6 1.6 0 0 0 1.599-1.599V24.56a1.6 1.6 0 0 0-1.599-1.599h-.533V9.668L29.681 6.8a1.608 1.608 0 1 0-.746-.763L26.654 8.2V6.97a1.6 1.6 0 0 0-1.599-1.599H3.733A1.6 1.6 0 0 0 2.134 6.97v15.992h-.533a1.6 1.6 0 0 0-1.599 1.599v2.132a1.6 1.6 0 0 0 1.599 1.599zM30.384 4.837a.533.533 0 1 1 0 1.067.533.533 0 0 1 0-1.067zM3.198 6.969c0-.294.239-.533.533-.533h21.322c.294 0 .533.239.533.533v2.239l-1.066 1.013V8.035a.533.533 0 0 0-.533-.533H4.797a.533.533 0 0 0-.533.533v13.326c0 .294.239.533.533.533h19.19a.533.533 0 0 0 .533-.533v-9.674l1.066-1.01v12.284H3.198V6.969zm4.798 6.93a1.598 1.598 0 1 0 1.107 2.749l1.853.93a.532.532 0 0 0 .636-.123l3.939-4.431 3.872 2.901a.533.533 0 0 0 .686-.039l3.365-3.188v8.131H5.33V8.569h18.124v2.66l-3.771 3.572-3.904-2.927a.533.533 0 0 0-.718.072l-3.993 4.493-1.493-.746c.011-.064.018-.129.02-.193a1.6 1.6 0 0 0-1.599-1.599zm.533 1.599a.533.533 0 1 1-1.067 0 .533.533 0 0 1 1.067 0zm3.198 8.529h5.331v.533a.533.533 0 0 1-.533.533h-4.264a.533.533 0 0 1-.533-.533v-.533zm-10.661.533c0-.294.239-.533.533-.533h9.062v.533a1.6 1.6 0 0 0 1.599 1.599h4.264a1.6 1.6 0 0 0 1.599-1.599v-.533h9.062c.294 0 .533.239.533.533v2.132a.533.533 0 0 1-.533.533H1.598a.533.533 0 0 1-.533-.533V24.56z" />
    </symbol>
    <symbol id="icon-twiter-footer" viewBox="0 0 32 32">
      <path fill="#4d5ae5" style="fill:var(--color2, #4d5ae5)"
        d="M32 16c0 4.418-1.791 8.418-4.686 11.314S20.419 32 16 32c-4.418 0-8.418-1.791-11.314-4.686S0 20.419 0 16c0-4.418 1.791-8.418 4.686-11.314S11.581 0 16 0c4.418 0 8.418 1.791 11.314 4.686S32 11.581 32 16z" />
      <path fill="#f4f4fd" style="fill:var(--color4, #f4f4fd)"
        d="M25.6 10.047a8.223 8.223 0 0 1-2.268.622 3.915 3.915 0 0 0 1.732-2.176 7.866 7.866 0 0 1-2.496.953 3.936 3.936 0 0 0-6.809 2.691c0 .312.026.612.091.898a11.143 11.143 0 0 1-8.113-4.117 3.96 3.96 0 0 0-.539 1.99c0 1.363.702 2.572 1.748 3.271a3.888 3.888 0 0 1-1.778-.485v.043a3.954 3.954 0 0 0 3.154 3.868c-.32.088-.67.13-1.032.13-.252 0-.506-.014-.745-.067.51 1.559 1.957 2.705 3.678 2.742a7.907 7.907 0 0 1-4.88 1.679c-.323 0-.632-.014-.942-.054a11.085 11.085 0 0 0 6.038 1.766c7.243 0 11.203-6 11.203-11.201 0-.174-.006-.342-.014-.509a7.845 7.845 0 0 0 1.973-2.044z" />
    </symbol>
    <symbol id="icon-facebook-footer" viewBox="0 0 32 32">
      <path fill="#4d5ae5" style="fill:var(--color2, #4d5ae5)"
        d="M32 16c0 4.418-1.791 8.418-4.686 11.314S20.419 32 16 32c-4.418 0-8.418-1.791-11.314-4.686S0 20.419 0 16c0-4.418 1.791-8.418 4.686-11.314S11.581 0 16 0c4.418 0 8.418 1.791 11.314 4.686S32 11.581 32 16z" />
      <path fill="#f4f4fd" style="fill:var(--color4, #f4f4fd)"
        d="M19.198 9.588h1.753V6.535a22.54 22.54 0 0 0-2.554-.135c-2.527 0-4.258 1.59-4.258 4.511V13.6H11.35v3.413h2.789V25.6h3.419v-8.586h2.676l.425-3.413h-3.102V11.25c.001-.986.266-1.662 1.641-1.662z" />
    </symbol>
    <symbol id="icon-in-footer" viewBox="0 0 32 32">
      <path fill="#4d5ae5" style="fill:var(--color2, #4d5ae5)"
        d="M32 16c0 4.418-1.791 8.418-4.686 11.314S20.419 32 16 32c-4.418 0-8.418-1.791-11.314-4.686S0 20.419 0 16c0-4.418 1.791-8.418 4.686-11.314S11.581 0 16 0c4.418 0 8.418 1.791 11.314 4.686S32 11.581 32 16z" />
      <path fill="#f4f4fd" style="fill:var(--color4, #f4f4fd)"
        d="M25.595 25.6v-.001h.005v-7.042c0-3.445-.742-6.098-4.769-6.098-1.936 0-3.235 1.062-3.766 2.07h-.056v-1.748h-3.818v12.818h3.976v-6.347c0-1.671.317-3.287 2.386-3.287 2.039 0 2.07 1.907 2.07 3.394V25.6h3.972zM6.717 12.782h3.981V25.6H6.717V12.782zM8.706 6.4C7.433 6.4 6.4 7.433 6.4 8.706s1.033 2.327 2.306 2.327c1.273 0 2.306-1.054 2.306-2.327S9.978 6.4 8.706 6.4z" />
    </symbol>
    <symbol id="icon-insta-team" viewBox="0 0 32 32">
      <path fill="#4d5ae5" style="fill:var(--color2, #4d5ae5)"
        d="M32 16c0 4.418-1.791 8.418-4.686 11.314S20.419 32 16 32c-4.418 0-8.418-1.791-11.314-4.686S0 20.419 0 16c0-4.418 1.791-8.418 4.686-11.314S11.581 0 16 0c4.418 0 8.418 1.791 11.314 4.686S32 11.581 32 16z" />
      <path fill="#f4f4fd" style="fill:var(--color4, #f4f4fd)"
        d="M22.387 13.363c-.03-.68-.14-1.148-.298-1.553a3.136 3.136 0 0 0-.74-1.135 3.153 3.153 0 0 0-1.133-.738c-.408-.158-.873-.268-1.553-.298-.685-.032-.903-.04-2.641-.04s-1.955.008-2.638.038c-.68.03-1.148.14-1.553.298-.43.162-.815.413-1.135.74-.325.32-.578.708-.738 1.133-.158.408-.268.873-.298 1.553-.032.685-.04.903-.04 2.641s.008 1.955.038 2.638c.03.68.14 1.148.298 1.553.162.43.415.815.74 1.135.32.325.708.578 1.133.738.408.158.873.268 1.553.298.683.03.9.038 2.638.038s1.955-.007 2.638-.038c.68-.03 1.148-.14 1.553-.298a3.278 3.278 0 0 0 1.873-1.873c.157-.408.268-.873.298-1.553.03-.683.038-.9.038-2.638s-.003-1.955-.033-2.638zm-1.152 5.226c-.028.625-.133.963-.22 1.188-.215.558-.658 1-1.215 1.215-.225.088-.565.193-1.188.22-.675.03-.878.037-2.585.037s-1.913-.007-2.586-.037c-.625-.027-.963-.132-1.188-.22a1.966 1.966 0 0 1-.735-.478 1.998 1.998 0 0 1-.478-.735c-.088-.225-.193-.565-.22-1.188-.03-.675-.038-.878-.038-2.586s.007-1.913.038-2.586c.027-.625.132-.963.22-1.188.103-.278.265-.53.48-.735a1.99 1.99 0 0 1 .735-.478c.225-.087.565-.192 1.188-.22.675-.03.878-.038 2.586-.038 1.71 0 1.913.008 2.586.038.625.028.963.133 1.188.22.277.102.53.265.735.478.212.208.375.458.478.735.088.225.192.565.22 1.188.03.675.038.878.038 2.586s-.008 1.908-.038 2.583z" />
      <path fill="#f4f4fd" style="fill:var(--color4, #f4f4fd)"
        d="M16.024 12.713a3.29 3.29 0 0 0 0 6.576 3.29 3.29 0 0 0 0-6.576zm0 5.421a2.133 2.133 0 1 1 0-4.266 2.133 2.133 0 0 1 0 4.266zM20.21 12.583a.768.768 0 1 1-1.536 0 .768.768 0 0 1 1.536 0z" />
    </symbol>
    <symbol id="icon-twiter-team" viewBox="0 0 32 32">
      <path fill="#4d5ae5" style="fill:var(--color2, #4d5ae5)"
        d="M32 16c0 4.418-1.791 8.418-4.686 11.314S20.419 32 16 32c-4.418 0-8.418-1.791-11.314-4.686S0 20.419 0 16c0-4.418 1.791-8.418 4.686-11.314S11.581 0 16 0c4.418 0 8.418 1.791 11.314 4.686S32 11.581 32 16z" />
      <path fill="#f4f4fd" style="fill:var(--color4, #f4f4fd)"
        d="M22.4 12.031a5.455 5.455 0 0 1-1.512.414 2.608 2.608 0 0 0 1.154-1.45 5.245 5.245 0 0 1-1.664.635 2.623 2.623 0 0 0-4.539 1.795c0 .208.018.408.061.598a7.426 7.426 0 0 1-5.409-2.745 2.628 2.628 0 0 0 .807 3.507 2.591 2.591 0 0 1-1.186-.323v.029c0 1.275.91 2.334 2.102 2.578a2.636 2.636 0 0 1-.688.086c-.168 0-.338-.01-.497-.045a2.65 2.65 0 0 0 2.452 1.828 5.275 5.275 0 0 1-3.882 1.083 7.384 7.384 0 0 0 4.026 1.178c4.829 0 7.469-4 7.469-7.467a6.24 6.24 0 0 0-.01-.339c.521-.37.958-.831 1.315-1.362z" />
    </symbol>
    <symbol id="icon-facebook-team" viewBox="0 0 32 32">
      <path fill="#4d5ae5" style="fill:var(--color2, #4d5ae5)"
        d="M32 16c0 4.418-1.791 8.418-4.686 11.314S20.419 32 16 32c-4.418 0-8.418-1.791-11.314-4.686S0 20.419 0 16c0-4.418 1.791-8.418 4.686-11.314S11.581 0 16 0c4.418 0 8.418 1.791 11.314 4.686S32 11.581 32 16z" />
      <path fill="#f4f4fd" style="fill:var(--color4, #f4f4fd)"
        d="M18.132 11.725h1.169V9.69a15.04 15.04 0 0 0-1.702-.09c-1.685 0-2.839 1.06-2.839 3.007V14.4h-1.859v2.275h1.859V22.4h2.279v-5.724h1.784l.283-2.275h-2.068v-1.567c0-.658.178-1.108 1.094-1.108z" />
    </symbol>
    <symbol id="icon-in-team" viewBox="0 0 32 32">
      <path fill="#4d5ae5" style="fill:var(--color2, #4d5ae5)"
        d="M32 16c0 4.418-1.791 8.418-4.686 11.314S20.419 32 16 32c-4.418 0-8.418-1.791-11.314-4.686S0 20.419 0 16c0-4.418 1.791-8.418 4.686-11.314S11.581 0 16 0c4.418 0 8.418 1.791 11.314 4.686S32 11.581 32 16z" />
      <path fill="#f4f4fd" style="fill:var(--color4, #f4f4fd)"
        d="M22.397 22.4v-.001h.003v-4.694c0-2.297-.494-4.066-3.179-4.066-1.291 0-2.157.708-2.51 1.38h-.037v-1.165h-2.546V22.4h2.651v-4.231c0-1.114.211-2.192 1.591-2.192 1.36 0 1.38 1.272 1.38 2.263v4.161h2.648zM9.811 13.854h2.654V22.4H9.811v-8.546zM11.137 9.6c-.849 0-1.537.688-1.537 1.537s.688 1.551 1.537 1.551 1.537-.703 1.537-1.551S11.985 9.6 11.137 9.6z" />
    </symbol>
    <symbol id="icon-insta-footer" viewBox="0 0 32 32">
      <path fill="#4d5ae5" style="fill:var(--color2, #4d5ae5)"
        d="M32 16c0 4.418-1.791 8.418-4.686 11.314S20.419 32 16 32c-4.418 0-8.418-1.791-11.314-4.686S0 20.419 0 16c0-4.418 1.791-8.418 4.686-11.314S11.581 0 16 0c4.418 0 8.418 1.791 11.314 4.686S32 11.581 32 16z" />
      <path fill="#f4f4fd" style="fill:var(--color4, #f4f4fd)"
        d="M25.581 12.045c-.045-1.02-.21-1.722-.446-2.329a4.693 4.693 0 0 0-1.11-1.703 4.714 4.714 0 0 0-1.699-1.106c-.611-.236-1.309-.401-2.329-.446-1.028-.049-1.354-.06-3.961-.06s-2.933.011-3.957.056c-1.02.045-1.722.21-2.329.446a4.693 4.693 0 0 0-1.703 1.11 4.723 4.723 0 0 0-1.106 1.699c-.236.611-.401 1.309-.446 2.329-.049 1.028-.06 1.354-.06 3.961s.011 2.933.056 3.957c.045 1.02.21 1.722.446 2.329a4.745 4.745 0 0 0 1.11 1.703c.48.488 1.061.866 1.699 1.106.611.236 1.309.401 2.329.446 1.024.045 1.35.056 3.957.056s2.933-.011 3.957-.056c1.02-.045 1.722-.21 2.329-.446a4.912 4.912 0 0 0 2.809-2.809c.236-.611.401-1.309.446-2.329.045-1.024.056-1.35.056-3.957s-.004-2.933-.049-3.957zm-1.729 7.839c-.041.938-.199 1.444-.33 1.782a3.187 3.187 0 0 1-1.823 1.823c-.338.131-.848.289-1.782.33-1.013.045-1.316.056-3.878.056s-2.869-.011-3.878-.056c-.938-.041-1.444-.199-1.782-.33a2.972 2.972 0 0 1-1.103-.716 2.964 2.964 0 0 1-.716-1.103c-.131-.338-.289-.848-.33-1.782-.045-1.013-.056-1.317-.056-3.878s.011-2.869.056-3.878c.041-.938.199-1.444.33-1.782.154-.416.398-.795.72-1.103a2.964 2.964 0 0 1 1.103-.716c.338-.131.848-.289 1.782-.33 1.013-.045 1.317-.056 3.878-.056 2.566 0 2.869.011 3.878.056.938.041 1.444.199 1.782.33a2.96 2.96 0 0 1 1.103.716c.319.311.563.686.716 1.103.131.338.289.848.33 1.782.045 1.013.056 1.316.056 3.878s-.011 2.862-.056 3.875z" />
      <path fill="#f4f4fd" style="fill:var(--color4, #f4f4fd)"
        d="M16.036 11.07a4.933 4.933 0 0 0 0 9.864 4.933 4.933 0 0 0 0-9.864zm0 8.131a3.2 3.2 0 1 1 .002-6.4 3.2 3.2 0 0 1-.002 6.4zM22.314 10.875a1.151 1.151 0 1 1-2.303 0 1.151 1.151 0 0 1 2.303 0z" />
    </symbol>
  </defs>
</svg>